<svg width="49" height="48" viewBox="0 0 49 48" fill="none" xmlns="http://www.w3.org/2000/svg">
<path d="M29.9281 29.7211C28.4502 28.2727 24.3922 27.8804 23.5776 29.6865C22.763 31.4927 24.611 31.5831 24.611 31.5831C24.611 31.5831 23.8919 31.344 23.8527 30.707C23.864 29.2508 28.232 28.5335 28.2761 31.6385C28.3202 34.7434 22.886 36.2264 17.7024 33.8119C12.5188 31.3975 7.94373 21.1965 17.2292 13.0992C24.9255 6.3879 33.4849 7.24923 36.2032 7.74042C33.19 4.71937 29.0222 2.8487 24.4176 2.8487C15.2256 2.8487 7.77399 10.3003 7.77399 19.4923C7.77399 28.6844 15.2256 36.1359 24.4176 36.1359C24.9756 36.1359 25.5267 36.1089 26.0709 36.0547C32.223 35.4063 31.3006 31.0662 29.9281 29.7211Z" fill="#3A398E"/>
<path d="M38.7642 11.0608C38.3278 10.2186 35.1748 7.05014 26.4072 9.72367C17.6396 12.3972 12.2989 20.027 13.0459 25.8452C13.7929 31.6635 18.1047 34.2531 21.8865 34.6454C25.6682 35.0377 27.9355 33.2312 27.7002 31.2803C27.6132 30.5611 26.9638 30.0458 26.2551 29.8691C25.0405 29.5663 23.6252 30.2821 24.437 31.2123C24.437 31.2123 24.0621 30.5518 24.8108 30.3407C25.5596 30.1297 26.7115 31.0256 26.0594 32.284C25.4074 33.5424 22.3505 34.2388 19.5105 32.3092C16.6705 30.3796 16.5181 25.3067 20.437 21.5088C24.3346 17.731 34.4625 14.2961 41.0615 19.3121C41.0356 16.5201 40.3043 13.78 38.9357 11.3463C38.8726 11.2548 38.8153 11.1594 38.7642 11.0608Z" fill="#4362AC"/>
<path d="M39.128 19.849C37.296 18.8607 31.521 17.5988 25.5585 19.9207C19.5959 22.2426 17.3775 27.426 18.5029 30.2295C19.6283 33.033 23.7128 33.5983 25.1831 32.6443C26.6534 31.6904 25.7949 30.6568 25.0006 30.5994C25.0006 30.5994 25.3205 30.7548 25.3803 31.0428C25.4726 31.4887 25.3505 31.8415 24.7839 32.1125C23.7554 32.6039 21.1712 32.2599 21.2897 29.1427C21.4081 26.0256 26.4281 23.8813 30.3793 24.3178C34.105 24.7285 37.9361 26.3751 37.2569 30.0871C39.0446 27.9264 40.255 25.3474 40.7746 22.5916C40.9365 21.621 40.6272 20.6575 39.128 19.849Z" fill="#58C4F1"/>
<path d="M5.8066 42.2078V40.7951C5.8066 40.0892 5.77378 39.3752 5.74139 38.6693C5.87397 38.6947 6.00851 38.7084 6.14348 38.7104C6.27845 38.7084 6.41299 38.6947 6.54556 38.6693C6.51274 39.3752 6.48036 40.0892 6.48036 40.7951V41.2465C6.48036 41.2959 6.49687 41.3117 6.52969 41.3117C6.56251 41.3117 6.57903 41.2954 6.64467 41.2378C7.40797 40.573 8.34363 39.5471 9.1152 38.6689C9.22545 38.6951 9.33831 38.7089 9.45164 38.7099C9.58397 38.7084 9.71588 38.6947 9.84568 38.6689C9.09042 39.3337 7.81006 40.5484 7.2191 41.2298C8.09738 42.2228 9.00848 43.2817 9.93588 44.3321C9.77296 44.3063 9.60834 44.2925 9.44338 44.2911C9.29205 44.2925 9.14108 44.3063 8.99196 44.3321C8.21236 43.3719 6.97285 41.8616 6.61989 41.5089C6.57077 41.4595 6.54599 41.4437 6.52143 41.4437C6.50952 41.4449 6.49856 41.4508 6.49089 41.46C6.48322 41.4692 6.47944 41.481 6.48036 41.493V42.2078C6.48036 42.9138 6.51318 43.6279 6.54556 44.3337C6.41299 44.3083 6.27845 44.2945 6.14348 44.2926C6.00851 44.2945 5.87397 44.3083 5.74139 44.3337C5.77378 43.6273 5.8066 42.9131 5.8066 42.2078Z" fill="#3A398E"/>
<path d="M13.1276 38.563C14.9413 38.563 16.2054 39.6382 16.2054 41.5015C16.2054 43.3647 14.9418 44.4397 13.1276 44.4397C11.3217 44.4397 10.0579 43.3645 10.0579 41.5015C10.0579 39.6384 11.3221 38.563 13.1276 38.563ZM13.1276 38.8673C11.847 38.8673 10.8622 39.6799 10.8622 41.5021C10.8622 43.3243 11.8475 44.1361 13.1276 44.1361C14.416 44.1361 15.401 43.3234 15.401 41.5015C15.401 39.6795 14.4164 38.8666 13.1276 38.8666V38.8673Z" fill="#3A398E"/>
<path d="M17.8802 38.563C18.627 40.1061 19.3986 41.5506 20.2358 43.0855C20.5642 42.4454 21.8691 40.0816 22.6735 38.563H22.7802C23.0264 40.6643 23.1905 42.4534 23.4539 44.333C23.1997 44.2782 22.9366 44.2782 22.6824 44.333C22.5674 42.864 22.4524 41.5015 22.2801 40.0979H22.2638C21.5168 41.4686 20.7617 42.8146 20.1134 44.2926H20.0391C19.3988 42.9303 18.6437 41.5184 17.9295 40.0979H17.9132C17.7572 41.4521 17.5275 43.4056 17.5192 44.333C17.3316 44.2782 17.1323 44.2782 16.9448 44.333C17.2321 42.5191 17.5603 40.303 17.7409 38.563H17.8802Z" fill="#3A398E"/>
<path d="M24.6515 40.7951C24.6515 40.0892 24.6187 39.3752 24.5863 38.6693C24.8516 38.724 25.1252 38.724 25.3905 38.6693C25.3577 39.3752 25.3253 40.0892 25.3253 40.7951V42.2078C25.3253 42.9138 25.3581 43.628 25.3905 44.3337C25.1252 44.2789 24.8516 44.2789 24.5863 44.3337C24.6191 43.628 24.6515 42.9138 24.6515 42.2078V40.7951Z" fill="#3A398E"/>
<path d="M31.5543 44.4397C30.3067 42.9705 28.8127 41.3948 27.4093 39.901C27.4011 40.2052 27.3848 40.6971 27.3848 41.5671C27.3848 42.273 27.4176 44.0048 27.4585 44.333C27.365 44.3068 27.2684 44.2929 27.1713 44.2919C27.0687 44.294 26.9666 44.3078 26.8671 44.333C26.9323 43.9472 27.0394 41.8462 27.0394 40.7627C27.0394 39.7286 27.0394 38.9325 27.0149 38.563H27.1453C28.4832 40.0157 30.2967 41.994 31.2985 43.0035C31.2985 41.5343 31.2985 39.9338 31.2333 38.6697C31.3241 38.6954 31.4179 38.7092 31.5123 38.7108C31.6013 38.7092 31.6896 38.6953 31.7749 38.6697C31.7257 39.154 31.6445 40.7779 31.6445 41.4193C31.6445 42.2565 31.661 44.0709 31.669 44.4404L31.5543 44.4397Z" fill="#3A398E"/>
<path d="M33.3187 40.7951C33.3187 40.0892 33.2858 39.3752 33.2535 38.6693C33.7459 38.6938 34.2302 38.7104 34.7227 38.7104C35.2152 38.7104 35.6994 38.6938 36.2904 38.6693C36.2573 38.8318 36.2573 38.9993 36.2904 39.1618C35.6994 39.1044 34.5338 39.0551 34.0002 39.0551C33.9922 39.4409 33.9839 39.7856 33.9839 40.1303C33.9839 40.5078 33.9922 40.8197 33.9922 41.1644C34.6979 41.1644 35.4286 41.1481 36.1098 41.0824C36.066 41.2437 36.066 41.4137 36.1098 41.5749C35.5599 41.5173 34.697 41.5097 33.9922 41.5097V42.2078C33.9922 42.9138 34.025 43.628 34.0574 44.3337C33.7921 44.2789 33.5185 44.2789 33.2532 44.3337C33.2861 43.628 33.3184 42.9138 33.3184 42.2078L33.3187 40.7951Z" fill="#3A398E"/>
<path d="M40.0328 38.563C41.8467 38.563 43.1108 39.6382 43.1108 41.5015C43.1108 43.3647 41.8467 44.4397 40.0328 44.4397C38.2271 44.4397 36.9631 43.3645 36.9631 41.5015C36.9631 39.6384 38.2271 38.563 40.0328 38.563ZM40.0328 38.8673C38.7525 38.8673 37.7675 39.6799 37.7675 41.5021C37.7675 43.3243 38.7525 44.1367 40.0328 44.1367C41.3214 44.1367 42.3064 43.3241 42.3064 41.5021C42.3064 39.6801 41.3214 38.8666 40.0328 38.8666V38.8673Z" fill="#3A398E"/>
</svg>
