<svg width="47" height="46" viewBox="0 0 47 46" fill="none" xmlns="http://www.w3.org/2000/svg">
<path fill-rule="evenodd" clip-rule="evenodd" d="M23.5012 4H23.4983C18.2673 4.00041 13.5176 6.13447 10.0762 9.57576C6.63441 13.0172 4.5 17.7674 4.5 22.999V23.0024C4.50055 28.2331 6.63441 32.9823 10.0758 36.4237C13.517 39.8655 18.2673 42 23.4988 42H23.5021C28.7327 42 33.482 39.8659 36.9232 36.4241C40.365 32.9828 42.4994 28.2325 42.5 23.0009V22.998C42.4994 17.7669 40.366 13.0176 36.9242 9.57631C33.4824 6.13447 28.7327 4 23.5012 4ZM28.6934 20.8193C30.9036 21.6575 32.1697 22.6835 33.2504 23.4652C36.158 25.8218 35.6917 30.6422 32.9311 32.8686C31.0646 34.3573 28.3501 35.0983 24.794 35.0983H12.0186C11.7853 35.0083 11.6103 34.101 12.0186 33.9527C13.1831 33.9527 13.8501 33.8448 14.2687 33.6265C14.6786 33.4121 14.7351 33.135 14.9018 32.7907C15.07 32.4445 15.1552 31.6039 15.1552 30.2533V14.8774C15.1552 13.2934 15.0696 12.6798 14.9018 12.3272C14.3281 11.1214 13.0858 11.2945 12.0186 11.1195C11.6686 11.0077 11.7853 10.3713 12.0186 10.1428H21.2929C21.271 9.76787 21.2413 9.49555 21.2053 9.32643C21.1198 8.9131 20.9447 8.55668 20.6769 8.24893C20.4123 7.94118 20.0507 7.78709 19.5995 7.78709H19.0632V6.90363H27.5051V7.78709H26.9689C26.5011 7.78709 26.1233 7.9489 25.8389 8.28105C25.6313 8.50803 25.4684 8.88098 25.3507 9.42413C25.3176 9.5719 25.2909 9.81403 25.2705 10.148C28.0666 10.1841 31.3582 10.4792 33.02 12.8975C34.7563 16.3836 31.985 19.6475 28.6934 20.8193ZM27.5051 38.2216V39.0964H19.0632V38.2216H19.5995C20.0667 38.2216 20.445 38.051 20.7294 37.719C20.9365 37.5001 21.0955 37.1194 21.2053 36.5763C21.2346 36.4533 21.2594 36.2627 21.2788 36.004H25.2773C25.2978 36.3045 25.323 36.5277 25.3546 36.674C25.4484 37.0869 25.6273 37.4437 25.8914 37.7509C26.1597 38.0671 26.5177 38.2216 26.9689 38.2216H27.5051ZM21.339 33.5224V23.6155L21.6391 23.3446L25.1159 22.9347L25.2209 23.068V33.5224H26.133C29.0225 33.5224 31.3859 31.1585 31.3859 28.27C31.3412 25.2546 28.8815 23.1705 26.0246 21.6254C25.0035 21.781 23.0515 22.0757 21.5127 22.1811L21.339 22.2036V22.1924C20.9491 22.2157 20.5889 22.2259 20.284 22.2167C19.7803 22.2007 20.1217 21.1859 20.1221 21.1494C20.2198 21.1165 20.6983 21.0493 21.339 20.9681V12.6817L21.998 12.1751H24.8304L25.2209 12.5042V20.4775C25.5471 20.4304 25.7693 20.3905 25.8267 20.3661C32.05 17.6566 30.1991 11.715 26.0168 11.3436H19.5966C19.3077 11.3436 19.0715 11.5804 19.0715 11.8692V31.4216C19.0715 32.5772 20.0166 33.5224 21.1723 33.5224H21.339Z" fill="#3A62C1"/>
</svg>
