<svg width="44" height="44" viewBox="0 0 44 44" fill="none" xmlns="http://www.w3.org/2000/svg">
<path d="M30.7405 21.538C30.7405 27.0172 26.2995 31.4583 20.8206 31.4583C15.3417 31.4583 10.9001 27.0171 10.9001 21.538C10.9001 16.0589 15.3417 11.6179 20.8206 11.6179C23.5492 11.6179 26.0207 12.7199 27.8139 14.5029L20.8206 21.5377L17.7299 18.4293L17.6769 23.1675L20.774 26.2381L29.7744 17.2635C30.4122 18.5981 30.7424 20.0588 30.7405 21.538ZM41.1481 39.942H22.0886V39.6775H41.1481V39.942Z" fill="#D66930"/>
<path d="M39.0234 41.1952H38.7905V32.1416H39.0234V41.1952Z" fill="#D66930"/>
<path d="M32.3919 37.3611V36.4036H34.3902V39.6372C33.6004 39.6417 33.7296 39.6501 33.4055 39.6565C32.9948 39.6644 32.7626 39.6506 32.3594 39.6506C31.8623 39.6506 31.458 39.7083 31.1448 39.463C30.8315 39.2177 30.5889 39.033 30.4168 38.5488C30.2449 38.0646 30.1588 37.148 30.1588 36.5202C30.1588 35.8598 30.2531 35.0754 30.4418 34.5863C30.6432 34.0643 30.9533 33.7672 31.2705 33.5933C31.6007 33.4117 31.936 33.3599 32.416 33.3599C32.8787 33.3599 33.2244 33.4504 33.4545 33.5715C33.6847 33.6926 33.9944 33.8811 34.1458 34.1348C34.3397 34.4605 34.3142 34.9473 34.3077 35.3125L33.1233 35.3082C33.0717 35.0772 33.0997 34.8204 33.0411 34.5975C32.9905 34.4043 32.7129 34.2454 32.3899 34.2337C32.1055 34.2234 31.8787 34.3166 31.7093 34.6021C31.5398 34.8876 31.4557 35.8794 31.4557 36.4975C31.4557 37.1544 31.4526 38.102 31.6207 38.3847C31.9451 38.9313 32.1167 38.8663 32.4205 38.8663C32.5674 38.8663 32.6826 38.8636 32.8333 38.8359C33.0177 38.8015 32.9518 38.8283 33.1329 38.7972V37.3601H32.3933L32.3919 37.3611ZM34.7294 37.7494L36.086 37.7573C36.1126 38.0476 36.1009 38.4186 36.1828 38.5705C36.3161 38.8166 36.6804 38.8496 36.9279 38.8496C37.1123 38.8496 37.2845 38.727 37.3844 38.6018C37.4843 38.4766 37.5241 38.2105 37.5048 38.0461C37.4781 37.8199 37.3976 37.7786 37.3029 37.6549C37.2081 37.5313 37.1207 37.4626 36.7913 37.2438C36.9544 37.3522 35.5185 36.4036 35.3981 36.3292C35.0657 36.1245 34.871 35.636 34.8529 35.131C34.8421 34.8214 34.9116 34.4191 35.0698 34.1601C35.228 33.901 35.4423 33.7264 35.693 33.568C35.9436 33.4096 36.4669 33.3305 36.9037 33.3305C37.4391 33.3305 38.1169 33.5644 38.3982 33.8517C38.6794 34.1389 38.7091 34.5507 38.7198 35.2105L37.4721 35.2058C37.44 34.9334 37.414 34.5975 37.3263 34.4607C37.2133 34.2851 36.9566 34.2748 36.7723 34.2748C36.6204 34.2748 36.416 34.3809 36.339 34.4731C36.2619 34.5653 36.1938 34.7977 36.1938 34.9298C36.1938 35.1004 36.2439 35.302 36.3507 35.4298C36.4129 35.5096 37.2186 36.0938 37.4463 36.1625C38.0119 36.3386 38.4542 36.8015 38.5654 37.0687C38.6765 37.336 38.7324 37.4251 38.7324 37.7557C38.7324 38.1441 38.7484 38.5321 38.5998 38.8601C38.4511 39.1881 38.1974 39.3405 37.9169 39.4859C37.5573 39.6718 37.3149 39.653 36.9088 39.653C36.1964 39.653 35.4663 39.6983 35.0994 39.2936C34.6178 38.7604 34.7741 38.5001 34.7303 37.7485L34.7294 37.7494ZM25.8468 37.7494L27.2039 37.7573C27.2302 38.0476 27.2185 38.4186 27.3007 38.5705C27.4339 38.8166 27.7978 38.8496 28.0455 38.8496C28.2299 38.8496 28.402 38.727 28.502 38.6018C28.6019 38.4766 28.6415 38.2105 28.6224 38.0461C28.5954 37.8199 28.5149 37.7786 28.4204 37.6549C28.326 37.5313 28.2378 37.4626 27.9089 37.2438C28.0716 37.3522 26.6361 36.4036 26.5157 36.3292C26.1832 36.1245 25.988 35.636 25.9705 35.131C25.9591 34.8214 26.0291 34.4191 26.1874 34.1601C26.3456 33.901 26.5599 33.7264 26.8105 33.568C27.0611 33.4096 27.5845 33.3305 28.0209 33.3305C28.5562 33.3305 29.2345 33.5644 29.5157 33.8517C29.797 34.1389 29.8253 34.5507 29.8374 35.2105L28.5897 35.2058C28.5572 34.9334 28.531 34.5975 28.4433 34.4607C28.3305 34.2851 28.0742 34.2748 27.8898 34.2748C27.738 34.2748 27.5333 34.3809 27.4566 34.4731C27.3798 34.5653 27.3114 34.7977 27.3114 34.9298C27.3114 35.1004 27.3611 35.302 27.4677 35.4298C27.5302 35.5096 28.3356 36.0938 28.5639 36.1625C29.1289 36.3386 29.5713 36.8015 29.6829 37.0687C29.7946 37.336 29.8501 37.4251 29.8501 37.7557C29.8501 38.1441 29.8654 38.5321 29.7168 38.8601C29.5682 39.1881 29.315 39.3405 29.0341 39.4859C28.6745 39.6718 28.4321 39.653 28.0264 39.653C27.314 39.653 26.5835 39.6983 26.2166 39.2936C25.735 38.7604 25.8912 38.5001 25.8473 37.7485L25.8468 37.7494ZM38.7872 30.6752C38.7872 30.6752 38.7692 21.628 38.7692 21.489C38.7692 11.4421 30.6255 3.29878 20.5786 3.29878C10.6568 3.29878 2.59258 11.2397 2.39203 21.1127H6.03034C6.22986 13.249 12.6661 6.93658 20.5783 6.93658C28.6158 6.93658 35.1603 13.4511 35.1603 21.4886C35.1603 21.9551 35.1548 30.675 35.1548 30.675H38.7872V30.6752Z" fill="#727575"/>
<path d="M7.51568 12.1864L7.77747 11.7861C7.8692 11.8455 7.94723 11.8804 8.01156 11.8909C8.11579 11.908 8.19726 11.8793 8.25597 11.8049C8.29977 11.7493 8.31508 11.6919 8.3019 11.6329C8.2893 11.5756 8.25757 11.5243 8.21192 11.4875C8.16627 11.4506 8.10943 11.4305 8.05078 11.4303C7.99184 11.4303 7.90458 11.47 7.78899 11.5495C7.59933 11.6786 7.43037 11.7444 7.28211 11.7469C7.13384 11.7494 6.98971 11.6959 6.8497 11.5863C6.75936 11.516 6.6857 11.4266 6.63401 11.3245C6.58265 11.2253 6.56228 11.1129 6.57553 11.002C6.58872 10.8893 6.64731 10.7667 6.75132 10.6344C6.87928 10.4722 7.01923 10.3818 7.17117 10.3633C7.3231 10.3449 7.49837 10.4007 7.69697 10.5309L7.43674 10.9242C7.34833 10.8705 7.27328 10.8448 7.21159 10.8472C7.1499 10.8496 7.09709 10.8787 7.05318 10.9344C7.01723 10.98 7.00381 11.0252 7.01293 11.0696C7.02223 11.1148 7.04789 11.155 7.085 11.1824C7.11307 11.2047 7.14825 11.2161 7.18407 11.2146C7.22191 11.2146 7.27832 11.1881 7.35332 11.1353C7.54034 11.0047 7.68969 10.9232 7.80138 10.8909C7.90735 10.8586 8.0202 10.8565 8.12732 10.8847C8.23851 10.9159 8.34215 10.9695 8.43193 11.0422C8.54217 11.1271 8.63222 11.2354 8.6956 11.3592C8.75494 11.4702 8.77986 11.5963 8.76716 11.7215C8.7534 11.8415 8.69824 11.9631 8.60169 12.0861C8.43176 12.3019 8.25551 12.4051 8.07296 12.3957C7.89041 12.3863 7.70443 12.3162 7.515 12.1855L7.51568 12.1864ZM7.39907 9.88621L7.78641 9.48975L8.55904 9.78903L8.24187 9.02346L8.6268 8.62924L9.13248 10.0025L9.81378 10.6674L9.46462 11.025L8.7835 10.3597L7.39907 9.88621ZM9.78901 9.63509L10.1297 9.29935C10.207 9.37675 10.2758 9.42743 10.3361 9.4514C10.4344 9.48992 10.5198 9.47892 10.5941 9.41854C10.6488 9.37348 10.676 9.32056 10.6755 9.25979C10.675 9.2013 10.6546 9.14472 10.6179 9.09925C10.5811 9.05377 10.53 9.02209 10.4729 9.00936C10.4155 8.99663 10.3219 9.01692 10.192 9.07024C9.97884 9.15659 9.79967 9.18525 9.6545 9.15624C9.50934 9.12723 9.37982 9.04433 9.26596 8.90753C9.19288 8.81965 9.14003 8.71677 9.11116 8.60619C9.08203 8.49858 9.08605 8.38468 9.12268 8.27939C9.15926 8.17195 9.24245 8.06462 9.37225 7.9574C9.53084 7.82473 9.68661 7.76574 9.83958 7.78042C9.99254 7.79509 10.152 7.88683 10.3179 8.05562L9.98027 8.38482C9.90517 8.31362 9.83723 8.27268 9.77645 8.26202C9.74575 8.2571 9.71433 8.2592 9.68455 8.26813C9.65476 8.27707 9.62738 8.29261 9.60445 8.31362C9.55956 8.35042 9.53668 8.3917 9.53565 8.43728C9.53548 8.48345 9.55204 8.52812 9.58226 8.56302C9.60504 8.59073 9.63692 8.60945 9.67222 8.61582C9.70903 8.62408 9.76992 8.61032 9.85437 8.57402C10.0649 8.48607 10.2282 8.43814 10.3444 8.43023C10.4547 8.42116 10.5654 8.44302 10.664 8.49336C10.766 8.54744 10.8558 8.62184 10.928 8.71197C11.0178 8.81834 11.0828 8.94328 11.1186 9.07781C11.1531 9.19873 11.1507 9.3272 11.1117 9.44675C11.073 9.56142 10.9934 9.66852 10.8728 9.76805C10.6609 9.9428 10.4666 10.0065 10.29 9.95914C10.1135 9.91178 9.94662 9.80382 9.78952 9.63526L9.78901 9.63509ZM10.2008 7.34096L11.4651 6.4997L11.7768 6.9672L11.3532 7.25031L12.3009 8.67447L11.8848 8.95122L10.9371 7.52706L10.5123 7.81L10.2008 7.34096ZM11.8114 6.30053L12.9982 5.67754L13.2244 6.10754L12.4801 6.49833L12.6478 6.81773L13.3358 6.45653L13.5513 6.86675L12.8633 7.22795L13.0709 7.62355L13.8357 7.22228L14.0765 7.67911L12.8695 8.31293L11.8126 6.30053H11.8114ZM13.4375 5.46547L14.0548 5.23086L14.7804 6.43486L14.5242 5.05267L15.1386 4.81944L15.947 6.94415L15.5632 7.09018L14.9473 5.46908L15.2679 7.20164L14.9227 7.33287L14.0126 5.82357L14.6287 7.44433L14.245 7.59036L13.4366 5.46547H13.4375ZM17.765 5.57864L18.2294 5.67909C18.2335 5.85402 18.2153 6.00469 18.175 6.13008C18.1348 6.25546 18.0744 6.35643 17.9936 6.43176C17.9127 6.5071 17.8013 6.55887 17.659 6.58656C17.487 6.61959 17.3393 6.6115 17.216 6.56231C17.0926 6.51312 16.9741 6.40728 16.8606 6.2448C16.747 6.0822 16.6634 5.86244 16.6098 5.58552C16.5386 5.21584 16.5537 4.91834 16.6549 4.69302C16.7562 4.4677 16.9344 4.33038 17.1897 4.28108C17.3892 4.24266 17.557 4.26921 17.6933 4.36071C17.8295 4.45222 17.9481 4.61011 18.049 4.8344L17.6429 5.0525C17.6234 5.00312 17.5978 4.95638 17.5667 4.91335C17.5341 4.87004 17.4915 4.83519 17.4427 4.8117C17.3986 4.79103 17.349 4.785 17.3013 4.7945C17.1902 4.81582 17.1171 4.89523 17.082 5.03272C17.0553 5.13477 17.061 5.2859 17.0992 5.48611C17.147 5.7339 17.2066 5.89862 17.2779 5.98026C17.3491 6.06179 17.4327 6.09344 17.53 6.07469C17.6274 6.05594 17.6883 6.00589 17.722 5.92196C17.7557 5.83802 17.7698 5.72398 17.7643 5.57796L17.765 5.57864ZM18.3622 4.12696L19.6978 4.01602L19.7382 4.50072L18.9007 4.57038L18.9305 4.92986L19.7045 4.86536L19.7428 5.32701L18.9688 5.39134L19.0058 5.8363L19.8658 5.76492L19.9086 6.27937L18.5498 6.39238L18.3606 4.12696H18.3622ZM20.1193 6.27387L20.1709 4.00123L21.0017 4.01998C21.1558 4.02342 21.2731 4.04463 21.3536 4.08362C21.4341 4.12266 21.4983 4.19336 21.5459 4.29501C21.5935 4.39666 21.6156 4.52016 21.6125 4.66446C21.6124 4.77592 21.5904 4.88628 21.5476 4.9892C21.5117 5.0739 21.4563 5.14888 21.3858 5.20798C21.333 5.24784 21.273 5.27705 21.2091 5.29398C21.2563 5.31514 21.2995 5.34423 21.3369 5.37998C21.367 5.4175 21.3928 5.45816 21.4141 5.50124C21.4401 5.5469 21.4624 5.59458 21.4807 5.64383L21.7076 6.3093L21.1434 6.29657L20.893 5.5955C20.8615 5.50486 20.8331 5.44569 20.807 5.41834C20.7917 5.40142 20.7732 5.38779 20.7525 5.37826C20.7318 5.36874 20.7094 5.36353 20.6866 5.36296L20.6429 5.3621L20.6219 6.28488L20.1188 6.27387H20.1193ZM20.6525 4.93227L20.8605 4.93691C20.9052 4.93289 20.9493 4.92353 20.9919 4.90905C21.0095 4.90379 21.0258 4.89497 21.0398 4.88314C21.0538 4.8713 21.0653 4.8567 21.0734 4.84025C21.0957 4.80039 21.1075 4.75554 21.1078 4.70987C21.1094 4.63694 21.0943 4.58047 21.0626 4.54045C21.0308 4.50055 20.97 4.47956 20.8797 4.47767L20.663 4.47286L20.6529 4.93261L20.6525 4.93227ZM21.9838 4.06057L23.49 4.25442L23.4185 4.81221L22.9128 4.7472L22.6947 6.44398L22.199 6.38016L22.4172 4.68356L21.9117 4.61837L21.9838 4.06057ZM23.8576 4.3356L24.3464 4.43794L23.882 6.66293L23.3927 6.56094L23.8576 4.3356ZM24.8232 4.54338L26.01 4.88411L25.8744 5.35487L25.1717 5.1526L25.0628 5.531L25.6648 5.703L25.5378 6.14521L24.9369 5.97321L24.6789 6.86761L24.1957 6.72864L24.8237 4.54424L24.8232 4.54338ZM26.3958 5.02601L26.8648 5.19801L26.0783 7.33081L25.6096 7.15795L26.3958 5.02515V5.02601ZM27.7415 7.04322L28.0583 7.3972C27.9595 7.54157 27.857 7.65296 27.7508 7.7314C27.6446 7.80983 27.5366 7.8561 27.4267 7.8702C27.317 7.88407 27.1966 7.86074 27.0655 7.8002C26.9062 7.72624 26.791 7.6333 26.7202 7.52138C26.6493 7.40947 26.6153 7.25467 26.6182 7.05698C26.6208 6.85873 26.6815 6.63157 26.8003 6.37552C26.9584 6.03427 27.1445 5.80173 27.3585 5.67789C27.5724 5.55405 27.7973 5.54682 28.033 5.65622C28.2173 5.74187 28.3381 5.86164 28.3953 6.01552C28.4525 6.16941 28.4563 6.36698 28.4066 6.60824L27.9496 6.54786C27.9627 6.49632 27.9693 6.44332 27.9691 6.39014C27.968 6.33599 27.9539 6.28289 27.928 6.23534C27.904 6.19292 27.8672 6.15924 27.8229 6.13919C27.7197 6.09161 27.6139 6.11328 27.5057 6.20421C27.4243 6.2714 27.3407 6.39754 27.2549 6.58261C27.1491 6.81194 27.101 6.98039 27.1108 7.08794C27.1205 7.1955 27.1705 7.27003 27.2608 7.31154C27.3468 7.35196 27.4292 7.34784 27.5053 7.29985C27.5815 7.25186 27.6602 7.165 27.741 7.04357L27.7415 7.04322ZM28.9481 8.34956L28.463 8.05837L28.2009 8.33718L27.7639 8.07454L29.4548 6.4383L29.9244 6.72004L29.2732 8.98046L28.826 8.71162L28.9481 8.34956ZM29.1108 7.87226L29.3805 7.08106L28.8081 7.69063L29.1108 7.87226ZM30.6234 7.16053L31.8384 8.07161L31.5011 8.52156L31.0931 8.21592L30.0678 9.58521L29.6676 9.28576L30.6935 7.91647L30.2856 7.61082L30.6228 7.16087L30.6234 7.16053ZM32.1153 8.32015L32.4913 8.64919L30.9949 10.3596L30.6172 10.0309L32.1153 8.32015ZM32.0087 9.72488C32.2756 9.46688 32.5346 9.3189 32.7856 9.28094C33.0366 9.24299 33.2532 9.31844 33.4354 9.5073C33.6221 9.70062 33.6929 9.92033 33.6478 10.1664C33.6027 10.4125 33.4479 10.6625 33.1834 10.9165C32.9921 11.1012 32.8132 11.2298 32.6466 11.3023C32.48 11.3748 32.3209 11.4006 32.1695 11.3799C32.0178 11.3592 31.8797 11.2843 31.7551 11.1552C31.6285 11.024 31.5535 10.8873 31.5289 10.7445C31.5043 10.6017 31.5308 10.4423 31.6067 10.2663C31.6825 10.0904 31.8165 9.90978 32.0081 9.72522L32.0087 9.72488ZM32.3527 10.0861C32.1873 10.2455 32.0896 10.3817 32.0594 10.4949C32.0292 10.6081 32.0505 10.7022 32.1232 10.7773C32.1973 10.8545 32.2902 10.8801 32.4018 10.8541C32.5135 10.828 32.6609 10.7267 32.8439 10.55C32.9975 10.4009 33.0887 10.2703 33.1174 10.1581C33.146 10.046 33.1239 9.95186 33.051 9.87572C32.9811 9.80336 32.889 9.78009 32.7744 9.80589C32.6598 9.83169 32.5193 9.92508 32.3528 10.0861H32.3527ZM34.2921 10.4961L34.5751 10.8671L33.9442 12.1143L34.9447 11.3511L35.2294 11.7247L33.4234 13.1036L33.1382 12.7302L33.7648 11.4908L32.7701 12.2498L32.4849 11.8766L34.2921 10.4973V10.4961Z" fill="white"/>
<path d="M2.47182 23.0903L2.37482 22.4037L5.75651 21.924L5.85386 22.6106L2.47182 23.0903Z" fill="#D66930"/>
<path d="M4.94721 24.4534C5.09737 24.4324 5.42297 24.4135 5.48867 24.225C5.52307 24.124 5.50862 23.9902 5.44584 23.9154C5.35124 23.8015 5.22224 23.7888 5.08997 23.8122C4.84591 23.8506 4.75131 24.0518 4.64983 24.2979L4.53596 24.58C4.30703 25.1369 4.16289 25.3277 3.66358 25.3884C3.37961 25.4228 3.02305 25.4073 2.76918 25.0576C2.54971 24.7687 2.43343 24.0583 2.58634 23.7088C2.75146 23.3227 3.31304 23.2709 3.52357 23.2417L3.62006 23.9372C3.48711 23.9556 3.16203 23.979 3.07981 24.1743C3.03956 24.263 3.05539 24.4402 3.13038 24.5391C3.22739 24.6701 3.36034 24.6822 3.50637 24.6619C3.77675 24.6244 3.83214 24.4555 3.95151 24.1803L4.06348 23.9152C4.23101 23.5157 4.38753 23.1613 4.91677 23.0965C5.20625 23.0695 5.55317 23.1087 5.79879 23.4292C6.01774 23.7138 6.13057 24.337 5.98214 24.6858C5.80033 25.1092 5.25097 25.1244 5.04543 25.1572L4.94721 24.4534Z" fill="#D66930"/>
<path d="M6.54616 26.9779C6.3948 27.3219 6.052 27.4457 5.79847 27.521L4.44397 27.9233C4.17393 28.0035 3.84696 28.1051 3.49367 27.7532C3.22123 27.4906 3.00932 26.8072 3.09807 26.4237C3.21555 25.9366 3.68717 25.8191 3.92367 25.7487L5.19097 25.3724C5.48595 25.2849 5.83872 25.1937 6.17946 25.504C6.3303 25.6309 6.40529 25.8076 6.45896 25.9273C6.53601 26.1218 6.68359 26.6794 6.54616 26.9779ZM4.14848 26.4103C3.97803 26.4608 3.69887 26.5257 3.64641 26.7446C3.6225 26.8468 3.70936 27.1239 3.77971 27.1934C3.94947 27.3692 4.29107 27.2405 4.42402 27.2011L5.50521 26.8803C5.70043 26.8224 5.97718 26.7493 6.04787 26.5609C6.08004 26.4565 6.00367 26.1989 5.95396 26.1232C5.81464 25.8977 5.39582 26.0403 5.25461 26.0822L4.14848 26.4103Z" fill="#D66930"/>
<path d="M7.64898 28.4918L3.93172 29.0078L3.73822 28.7044L7.45789 28.192L7.64898 28.4918Z" fill="#D66930"/>
<path d="M5.26319 31.5266L4.86243 30.9607L7.64883 28.9866L8.04959 29.5525L5.26319 31.5266Z" fill="#D66930"/>
<path d="M9.47241 31.3052L9.05857 31.6203L8.44643 30.8172L7.77391 31.3293L8.35165 32.088L7.89603 32.4346L7.31845 31.6759L6.56389 32.2512L7.19667 33.0823L6.77596 33.4027L5.7204 32.0164L8.438 29.9473L9.47241 31.3052Z" fill="#D66930"/>
<path d="M9.78902 33.1523C9.95775 32.9837 10.133 32.8398 10.068 32.616C10.0374 32.518 9.93315 32.4075 9.83202 32.3799C9.63594 32.3308 9.46118 32.5056 9.32324 32.6435L8.44604 33.5207C8.38171 33.5851 8.10582 33.8486 8.17325 34.0632C8.20386 34.1551 8.31429 34.2715 8.41852 34.2961C8.60548 34.336 8.83132 34.1215 8.98612 33.9683L9.48268 34.4648C9.32634 34.621 8.93091 35.0655 8.51415 34.9857C8.14624 34.9122 7.62233 34.388 7.51191 34.0448C7.37104 33.5851 7.67135 33.2364 7.88601 33.0211L8.81773 32.0893C9.02929 31.878 9.34182 31.6205 9.76476 31.7187C10.1203 31.7983 10.5678 32.2519 10.7027 32.5646C10.8129 32.8226 10.7854 33.0519 10.6566 33.2603C10.605 33.3492 10.4175 33.53 10.2919 33.6559L9.78902 33.1523Z" fill="#D66930"/>
<path d="M11.5225 36.6434L11.1893 37.125L9.54291 35.9853L9.87848 35.5006C10.3915 35.3573 10.894 35.1785 11.3823 34.9655C11.6413 34.8654 12.1315 34.6143 12.1907 34.3448C12.1997 34.2997 12.1971 34.2531 12.1831 34.2093C12.1692 34.1655 12.1443 34.126 12.1109 34.0945C12.083 34.0649 12.0474 34.0436 12.008 34.0331C11.9687 34.0227 11.9272 34.0234 11.8883 34.0354C11.7748 34.0622 11.6797 34.2074 11.5711 34.364L10.9973 33.9667L11.0515 33.8885C11.1429 33.7565 11.3484 33.4139 11.6817 33.3969C12.0488 33.3769 12.534 33.7497 12.702 33.9714C12.8598 34.1702 12.9241 34.336 12.8224 34.6035C12.6078 35.1883 12.1656 35.4463 11.5928 35.6183C11.5928 35.6183 11.0522 35.7975 10.4979 35.9358L11.5225 36.6434Z" fill="#D66930"/>
<path d="M14.6836 35.6176L12.6315 37.8618L11.9552 37.5187L14.0192 35.3579L13.0216 34.8518L13.2727 34.3572L14.9038 35.1847L14.6836 35.6176Z" fill="#D66930"/>
<path d="M16.5242 35.8422C16.6838 36.1224 16.5758 36.4747 16.4984 36.6959L15.9862 38.1697C15.9236 38.35 15.8023 38.7255 15.3831 38.8092C15.0796 38.8643 14.4554 38.6795 14.2461 38.437C13.9676 38.1291 14.0569 37.793 14.1692 37.4697L14.6785 36.0039C14.7368 35.836 14.8737 35.4155 15.2763 35.3398C15.4193 35.3114 15.5656 35.3255 15.6969 35.357C15.9129 35.4095 16.3632 35.566 16.5242 35.8422ZM14.9308 38.2619C15.1479 38.3374 15.2445 38.1782 15.3541 37.8629L15.8434 36.4545C15.9514 36.1434 15.9772 35.9504 15.7588 35.879C15.4913 35.7906 15.4057 36.05 15.3176 36.3039L14.8467 37.6591C14.7588 37.9129 14.6647 38.1696 14.9308 38.2619Z" fill="#D66930"/>
<path d="M18.4912 36.2554C18.6864 36.5122 18.6254 36.8758 18.5786 37.105L18.2661 38.6338C18.2279 38.8206 18.1574 39.2088 17.753 39.3472C17.4592 39.442 16.8163 39.3416 16.5765 39.129C16.2598 38.8607 16.3037 38.5156 16.3723 38.1802L16.6831 36.6599C16.7187 36.4858 16.7989 36.051 17.1878 35.9225C17.3254 35.8756 17.4728 35.8709 17.6071 35.8845C17.8281 35.9074 18.2953 36.003 18.4912 36.2554ZM17.2322 38.8648C17.4573 38.9109 17.532 38.7402 17.5989 38.4133L17.8975 36.9525C17.9635 36.6298 17.9635 36.4351 17.7375 36.3933C17.4606 36.3417 17.4107 36.6095 17.3563 36.8728L17.0689 38.2784C17.0153 38.5418 16.9563 38.8084 17.2323 38.8648H17.2322Z" fill="#D66930"/>
<path d="M20.2036 36.2695L19.9738 39.6773L19.2858 39.6309L19.4599 37.0491C19.3123 37.165 19.1462 37.2552 18.9685 37.3157L19.0106 36.6886C19.1861 36.6006 19.3744 36.4478 19.5676 36.2266L20.2036 36.2695Z" fill="#D66930"/>
</svg>
