<svg width="70" height="54" viewBox="0 0 70 54" fill="none" xmlns="http://www.w3.org/2000/svg">
<path d="M57.32 30.2763L43.9145 54H52.0466C53.1724 54.0004 54.2784 53.6978 55.2533 53.1227C56.2282 52.5475 57.0376 51.7201 57.6001 50.7237L69.1416 30.2763C69.704 29.28 70 28.1501 70 27C70 25.8499 69.704 24.72 69.1416 23.7237L57.5856 3.27632C57.0236 2.28276 56.2163 1.45727 55.2443 0.882339C54.2724 0.307409 53.1697 0.0031619 52.0466 0H43.9145L57.32 23.7237C57.8824 24.72 58.1784 25.8499 58.1784 27C58.1784 28.1501 57.8824 29.28 57.32 30.2763Z" fill="#00E1B1"/>
<path d="M37.2359 30.2763L50.6414 54H42.5237C41.3982 53.9994 40.2925 53.6964 39.3178 53.1213C38.3431 52.5463 37.5335 51.7194 36.9703 50.7237L25.4191 30.2763C24.8567 29.28 24.5607 28.1501 24.5607 27C24.5607 25.8499 24.8567 24.72 25.4191 23.7237L36.9703 3.27632C37.5342 2.28126 38.344 1.45492 39.3185 0.879964C40.2931 0.305003 41.3983 0.00156644 42.5237 0H50.6414L37.2359 23.7237C36.6735 24.72 36.3774 25.8499 36.3774 27C36.3774 28.1501 36.6735 29.28 37.2359 30.2763Z" fill="url(#paint0_linear_1_255)" style="mix-blend-mode:multiply"/>
<path d="M30.9919 50.7237L19.4407 30.2763C18.8783 29.28 18.5823 28.1501 18.5823 27C18.5823 25.8499 18.8783 24.72 19.4407 23.7237L30.9919 3.27632C31.5554 2.28092 32.3651 1.45432 33.3398 0.879307C34.3144 0.304297 35.4199 0.00106885 36.5453 0H26.1918L12.7862 23.7237C12.2239 24.72 11.9278 25.8499 11.9278 27C11.9278 28.1501 12.2239 29.28 12.7862 30.2763L26.1918 54H36.5453C35.4197 53.9999 34.3139 53.6971 33.339 53.122C32.3642 52.5469 31.5547 51.7198 30.9919 50.7237Z" fill="url(#paint1_linear_1_255)" style="mix-blend-mode:multiply"/>
<path d="M19.0882 50.7237L7.53222 30.2763C6.96983 29.28 6.67378 28.1501 6.67378 27C6.67378 25.8499 6.96983 24.72 7.53222 23.7237L19.0882 3.27632C19.6514 2.28059 20.461 1.45371 21.4357 0.878648C22.4105 0.303588 23.5161 0.000570301 24.6416 0H14.2833L0.858434 23.7237C0.296047 24.72 0 25.8499 0 27C0 28.1501 0.296047 29.28 0.858434 30.2763L14.2639 54H24.6223C23.4998 53.997 22.3978 53.6927 21.4266 53.1177C20.4554 52.5428 19.649 51.7172 19.0882 50.7237Z" fill="url(#paint2_linear_1_255)" style="mix-blend-mode:multiply"/>
<path d="M53.2056 19.7023L49.8784 13.8158L44.2767 23.7237C43.7143 24.72 43.4182 25.8499 43.4182 27C43.4182 28.1501 43.7143 29.28 44.2767 30.2763L49.8784 40.1891L53.2056 34.3224L50.9311 30.301C50.3687 29.3047 50.0727 28.1748 50.0727 27.0247C50.0727 25.8745 50.3687 24.7446 50.9311 23.7484L53.2056 19.7023Z" fill="#00E1B1"/>
<defs>
<linearGradient id="paint0_linear_1_255" x1="31.9591" y1="50.0576" x2="34.3183" y2="-2.12546" gradientUnits="userSpaceOnUse">
<stop offset="0.04" stop-color="#0373FF"/>
<stop offset="0.89" stop-color="#0041B2"/>
</linearGradient>
<linearGradient id="paint1_linear_1_255" x1="-0.00324465" y1="27" x2="70" y2="27" gradientUnits="userSpaceOnUse">
<stop stop-color="#0353CA"/>
<stop offset="0.89" stop-color="#0041B2"/>
</linearGradient>
<linearGradient id="paint2_linear_1_255" x1="0.0516308" y1="27" x2="70" y2="27" gradientUnits="userSpaceOnUse">
<stop offset="0.04" stop-color="#034E97"/>
<stop offset="0.89" stop-color="#0041B2"/>
</linearGradient>
</defs>
</svg>
